REM MD5 22fd67ea8c6e85a4e433b16f285df6f6
FILE "PlayStation Underground Number 1 (USA) (Disc 2).bin" BINARY
  TRACK 01 MODE2/2352
    INDEX 01 00:00:00
  TRACK 02 AUDIO
    INDEX 00 60:57:31
    INDEX 01 60:59:31
  TRACK 03 AUDIO
    INDEX 00 63:25:33
    INDEX 01 63:27:33
  TRACK 04 AUDIO
    INDEX 00 68:35:33
    INDEX 01 68:37:33
  TRACK 05 AUDIO
    INDEX 00 68:49:34
    INDEX 01 68:51:34
REM LEADOUT 70:46:41
